<?xml version="1.0" encoding="UTF-8"?>
<svg width="17px" height="29px" viewBox="0 0 17 29" version="1.1" xmlns="http://www.w3.org/2000/svg" xmlns:xlink="http://www.w3.org/1999/xlink">
    <!-- Generator: sketchtool 47.1 (45422) - http://www.bohemiancoding.com/sketch -->
    <title>7C29EC23-4F4F-4C28-9D76-A1BFCF7BA85B</title>
    <desc>Created with sketchtool.</desc>
    <defs></defs>
    <g id="Page-1" stroke="none" stroke-width="1" fill="none" fill-rule="evenodd">
        <g id="new-event" transform="translate(-333.000000, -600.000000)" fill-rule="nonzero" fill="#FFFFFF">
            <g id="icon-next" transform="translate(333.000000, 600.000000)">
                <path d="M0.993265655,28.464778 C1.56848861,29.0186964 2.49878748,29.0186964 3.07259013,28.464778 L15.2346499,16.727389 C15.784826,16.2045277 16.0963149,15.4787877 16.0963149,14.7197898 C16.0963149,13.960792 15.784826,13.235052 15.2346499,12.7121907 L2.98453131,0.888163188 C2.40754382,0.339750329 1.50388592,0.33353535 0.919409867,0.873960152 C0.637410283,1.13388851 0.475698397,1.4990316 0.472737991,1.88253878 C0.469777585,2.26604595 0.625833239,2.63364199 0.903786528,2.89789279 L12.1156632,13.7163454 C12.3909784,13.9777969 12.5468694,14.340822 12.5468694,14.7205 C12.5468694,15.100178 12.3909784,15.4632031 12.1156632,15.7246546 L0.993265655,26.457889 C0.718028068,26.7190911 0.562164851,27.0818835 0.562164851,27.4613335 C0.562164851,27.8407835 0.718028068,28.2035759 0.993265655,28.464778" id="arrow_right-[#336]"></path>
            </g>
        </g>
    </g>
</svg>