<svg xmlns="http://www.w3.org/2000/svg" width="20" height="18" viewBox="0 0 20 18">
  <path fill-opacity=".5" d="M5.65217391,0 C2.53565217,0 0,2.53565217 0,5.65217391 C0,12.0704348 7.25826087,15.2378261 9.72826087,17.296087 L10,17.5273913 L10.2717391,17.296087 C12.7417391,15.2378261 20,12.07 20,5.65217391 C20,2.53565217 17.4643478,0 14.3478261,0 C12.5843478,0 11.0365217,0.836956522 10,2.10608696 C8.96347826,0.836521739 7.41565217,0 5.65217391,0 Z M5.65217391,0.869565217 C7.31956522,0.869565217 8.77652174,1.72608696 9.63304348,3.01652174 L10,3.56 L10.3669565,3.01652174 C11.2234783,1.72565217 12.6804348,0.869565217 14.3478261,0.869565217 C16.993913,0.869565217 19.1304348,3.00608696 19.1304348,5.65217391 C19.1304348,11.2595652 12.8665217,14.1626087 10,16.4265217 C7.13347826,14.1626087 0.869565217,11.2595652 0.869565217,5.65217391 C0.869565217,3.00608696 3.00608696,0.869565217 5.65217391,0.869565217 Z"/>
</svg>
