<?xml version="1.0" encoding="UTF-8"?>
<svg width="20px" height="13px" viewBox="0 0 20 13" version="1.1" xmlns="http://www.w3.org/2000/svg" xmlns:xlink="http://www.w3.org/1999/xlink">
    <!-- Generator: sketchtool 47.1 (45422) - http://www.bohemiancoding.com/sketch -->
    <title>BC8F12B4-FF97-4546-B1C0-EB7A982EFFA2</title>
    <desc>Created with sketchtool.</desc>
    <defs></defs>
    <g id="Page-1" stroke="none" stroke-width="1" fill="none" fill-rule="evenodd">
        <g id="new-profile" transform="translate(-316.000000, -330.000000)" fill-rule="nonzero" fill="#A2A2A2">
            <g id="Eye,-See,-Watch,-Human,-Body,-Organ,-Part,-Effect" transform="translate(316.000000, 330.000000)">
                <path d="M18.5714286,6.5 C17.4404762,4.72453704 16.0230655,3.39670139 14.3191964,2.51649306 C14.7730655,3.29890046 15,4.14525463 15,5.05555556 C15,6.44733796 14.5107887,7.63787616 13.5323661,8.62717014 C12.5539435,9.61646412 11.3764881,10.1111111 10,10.1111111 C8.6235119,10.1111111 7.44605655,9.61646412 6.46763393,8.62717014 C5.48921131,7.63787616 5,6.44733796 5,5.05555556 C5,4.14525463 5.22693452,3.29890046 5.68080357,2.51649306 C3.97693452,3.39670139 2.55952381,4.72453704 1.42857143,6.5 C2.41815476,8.04224537 3.65885417,9.27039931 5.15066964,10.1844618 C6.64248512,11.0985243 8.25892857,11.5555556 10,11.5555556 C11.7410714,11.5555556 13.3575149,11.0985243 14.8493304,10.1844618 C16.3411458,9.27039931 17.5818452,8.04224537 18.5714286,6.5 Z M10.5357143,2.16666667 C10.5357143,2.0162037 10.483631,1.88831019 10.3794643,1.78298611 C10.2752976,1.67766204 10.1488095,1.625 10,1.625 C9.06994048,1.625 8.2719494,1.96166088 7.60602679,2.63498264 C6.94010417,3.3083044 6.60714286,4.11516204 6.60714286,5.05555556 C6.60714286,5.20601852 6.65922619,5.33391204 6.76339286,5.43923611 C6.86755952,5.54456019 6.99404762,5.59722222 7.14285714,5.59722222 C7.29166667,5.59722222 7.41815476,5.54456019 7.52232143,5.43923611 C7.6264881,5.33391204 7.67857143,5.20601852 7.67857143,5.05555556 C7.67857143,4.40856481 7.90550595,3.85561343 8.359375,3.39670139 C8.81324405,2.93778935 9.36011905,2.70833333 10,2.70833333 C10.1488095,2.70833333 10.2752976,2.6556713 10.3794643,2.55034722 C10.483631,2.44502315 10.5357143,2.31712963 10.5357143,2.16666667 Z M20,6.5 C20,6.75578704 19.9255952,7.01533565 19.7767857,7.27864583 C18.735119,9.00896991 17.3344494,10.39511 15.5747768,11.437066 C13.8151042,12.479022 11.9568452,13 10,13 C8.04315476,13 6.18489583,12.4771412 4.42522321,11.4314236 C2.6655506,10.385706 1.26488095,9.00144676 0.223214286,7.27864583 C0.0744047619,7.01533565 0,6.75578704 0,6.5 C0,6.24421296 0.0744047619,5.98466435 0.223214286,5.72135417 C1.26488095,3.99855324 2.6655506,2.61429398 4.42522321,1.56857639 C6.18489583,0.522858796 8.04315476,0 10,0 C11.9568452,0 13.8151042,0.522858796 15.5747768,1.56857639 C17.3344494,2.61429398 18.735119,3.99855324 19.7767857,5.72135417 C19.9255952,5.98466435 20,6.24421296 20,6.5 Z" id="Shape"></path>
            </g>
        </g>
    </g>
</svg>
